<mxfile modified="2021-04-21T04:16:43.003Z" host="app.diagrams.net" agent="5.0 (Macintosh; Intel Mac OS X 10_15_7) AppleWebKit/537.36 (KHTML, like Gecko) Chrome/90.0.4430.85 Safari/537.36" etag="EBHMYTihtZ-NzNAKo8hi" version="14.6.3" type="github">
  <diagram id="C2fSY1v2SiZeoUbDoYyL" name="Page-1">
    <mxGraphModel dx="1426" dy="684" grid="1" gridSize="10" guides="1" tooltips="1" connect="1" arrows="1" fold="1" page="1" pageScale="1" pageWidth="1169" pageHeight="827" math="0" shadow="0">
      <root>
        <mxCell id="0" />
        <mxCell id="1" parent="0" />
        <mxCell id="J4r66mqfOuGrFgJUOyye-1" value="" style="rounded=1;whiteSpace=wrap;html=1;fillColor=#dae8fc;strokeColor=#6c8ebf;" vertex="1" parent="1">
          <mxGeometry x="80" y="110" width="650" height="430" as="geometry" />
        </mxCell>
        <mxCell id="J4r66mqfOuGrFgJUOyye-2" value="Robotframework&lt;br&gt;" style="text;html=1;strokeColor=none;fillColor=none;align=center;verticalAlign=middle;whiteSpace=wrap;rounded=0;" vertex="1" parent="1">
          <mxGeometry x="320" y="80" width="40" height="20" as="geometry" />
        </mxCell>
        <mxCell id="J4r66mqfOuGrFgJUOyye-3" value="Data" style="rounded=0;whiteSpace=wrap;html=1;fillColor=#e1d5e7;strokeColor=#9673a6;" vertex="1" parent="1">
          <mxGeometry x="560" y="140" width="120" height="60" as="geometry" />
        </mxCell>
        <mxCell id="J4r66mqfOuGrFgJUOyye-4" value="Robot" style="rounded=1;whiteSpace=wrap;html=1;fillColor=#bac8d3;strokeColor=#23445d;" vertex="1" parent="1">
          <mxGeometry x="330" y="430" width="120" height="60" as="geometry" />
        </mxCell>
        <mxCell id="J4r66mqfOuGrFgJUOyye-5" value="TestScripts" style="rounded=1;whiteSpace=wrap;html=1;fillColor=#1ba1e2;strokeColor=#006EAF;fontColor=#ffffff;" vertex="1" parent="1">
          <mxGeometry x="170" y="300" width="120" height="60" as="geometry" />
        </mxCell>
        <mxCell id="J4r66mqfOuGrFgJUOyye-6" value="Resources" style="rounded=1;whiteSpace=wrap;html=1;glass=0;sketch=0;shadow=0;fillColor=#60a917;strokeColor=#2D7600;fontColor=#ffffff;" vertex="1" parent="1">
          <mxGeometry x="170" y="190" width="120" height="60" as="geometry" />
        </mxCell>
        <mxCell id="J4r66mqfOuGrFgJUOyye-7" value="Keywords" style="rounded=1;whiteSpace=wrap;html=1;fillColor=#e3c800;strokeColor=#B09500;fontColor=#ffffff;" vertex="1" parent="1">
          <mxGeometry x="380" y="230" width="150" height="80" as="geometry" />
        </mxCell>
        <mxCell id="J4r66mqfOuGrFgJUOyye-8" value="Custom" style="rounded=1;whiteSpace=wrap;html=1;" vertex="1" parent="1">
          <mxGeometry x="395" y="300" width="65" height="30" as="geometry" />
        </mxCell>
        <mxCell id="J4r66mqfOuGrFgJUOyye-9" value="Default Selenium" style="rounded=1;whiteSpace=wrap;html=1;" vertex="1" parent="1">
          <mxGeometry x="470" y="300" width="70" height="30" as="geometry" />
        </mxCell>
        <mxCell id="J4r66mqfOuGrFgJUOyye-10" value="Actor" style="shape=umlActor;verticalLabelPosition=bottom;verticalAlign=top;html=1;outlineConnect=0;shadow=0;glass=0;sketch=0;gradientColor=none;" vertex="1" parent="1">
          <mxGeometry x="370" y="600" width="30" height="60" as="geometry" />
        </mxCell>
        <mxCell id="J4r66mqfOuGrFgJUOyye-15" value="Git" style="shape=cylinder3;whiteSpace=wrap;html=1;boundedLbl=1;backgroundOutline=1;size=15;shadow=0;glass=0;sketch=0;gradientColor=#ffd966;fillColor=#fff2cc;strokeColor=#d6b656;" vertex="1" parent="1">
          <mxGeometry x="70" y="100" width="60" height="80" as="geometry" />
        </mxCell>
        <mxCell id="J4r66mqfOuGrFgJUOyye-16" value="" style="curved=1;endArrow=classic;html=1;entryX=0;entryY=0;entryDx=0;entryDy=52.5;entryPerimeter=0;" edge="1" parent="1" target="J4r66mqfOuGrFgJUOyye-15">
          <mxGeometry width="50" height="50" relative="1" as="geometry">
            <mxPoint x="380" y="630" as="sourcePoint" />
            <mxPoint x="420" y="630" as="targetPoint" />
            <Array as="points">
              <mxPoint x="360" y="650" />
              <mxPoint y="600" />
            </Array>
          </mxGeometry>
        </mxCell>
        <mxCell id="J4r66mqfOuGrFgJUOyye-19" value="QA" style="text;html=1;align=center;verticalAlign=middle;resizable=0;points=[];autosize=1;strokeColor=none;" vertex="1" parent="1">
          <mxGeometry x="415" y="610" width="30" height="20" as="geometry" />
        </mxCell>
        <mxCell id="J4r66mqfOuGrFgJUOyye-20" value="Applciation" style="rounded=0;whiteSpace=wrap;html=1;shadow=0;glass=0;sketch=0;gradientColor=none;" vertex="1" parent="1">
          <mxGeometry x="870" y="190" width="130" height="60" as="geometry" />
        </mxCell>
        <mxCell id="J4r66mqfOuGrFgJUOyye-22" value="" style="dashed=0;outlineConnect=0;html=1;align=center;labelPosition=center;verticalLabelPosition=bottom;verticalAlign=top;shape=mxgraph.webicons.chrome;gradientColor=#DFDEDE;shadow=0;glass=0;sketch=0;" vertex="1" parent="1">
          <mxGeometry x="897" y="330" width="103.2" height="104" as="geometry" />
        </mxCell>
        <mxCell id="J4r66mqfOuGrFgJUOyye-24" value="Jenkins" style="shape=process;whiteSpace=wrap;html=1;backgroundOutline=1;shadow=0;glass=0;sketch=0;gradientColor=none;" vertex="1" parent="1">
          <mxGeometry x="777" y="520" width="120" height="60" as="geometry" />
        </mxCell>
        <mxCell id="J4r66mqfOuGrFgJUOyye-26" value="" style="curved=1;endArrow=classic;html=1;entryX=0.5;entryY=0;entryDx=0;entryDy=0;exitX=0.75;exitY=1;exitDx=0;exitDy=0;" edge="1" parent="1" source="J4r66mqfOuGrFgJUOyye-1" target="J4r66mqfOuGrFgJUOyye-24">
          <mxGeometry width="50" height="50" relative="1" as="geometry">
            <mxPoint x="730" y="510" as="sourcePoint" />
            <mxPoint x="780" y="460" as="targetPoint" />
            <Array as="points">
              <mxPoint x="720" y="590" />
              <mxPoint x="730" y="460" />
              <mxPoint x="760" y="490" />
            </Array>
          </mxGeometry>
        </mxCell>
        <mxCell id="J4r66mqfOuGrFgJUOyye-29" value="" style="edgeStyle=elbowEdgeStyle;elbow=horizontal;endArrow=classic;html=1;exitX=1;exitY=0.5;exitDx=0;exitDy=0;" edge="1" parent="1" source="J4r66mqfOuGrFgJUOyye-24" target="J4r66mqfOuGrFgJUOyye-22">
          <mxGeometry width="50" height="50" relative="1" as="geometry">
            <mxPoint x="860" y="560" as="sourcePoint" />
            <mxPoint x="910" y="510" as="targetPoint" />
            <Array as="points">
              <mxPoint x="949" y="550" />
            </Array>
          </mxGeometry>
        </mxCell>
        <mxCell id="J4r66mqfOuGrFgJUOyye-30" value="" style="edgeStyle=segmentEdgeStyle;endArrow=classic;html=1;entryX=0.5;entryY=1;entryDx=0;entryDy=0;" edge="1" parent="1" target="J4r66mqfOuGrFgJUOyye-20">
          <mxGeometry width="50" height="50" relative="1" as="geometry">
            <mxPoint x="930" y="330" as="sourcePoint" />
            <mxPoint x="980" y="280" as="targetPoint" />
            <Array as="points">
              <mxPoint x="930" y="320" />
              <mxPoint x="935" y="320" />
            </Array>
          </mxGeometry>
        </mxCell>
        <mxCell id="J4r66mqfOuGrFgJUOyye-34" value="" style="endArrow=classic;startArrow=classic;html=1;entryX=0.5;entryY=1;entryDx=0;entryDy=0;exitX=0;exitY=0.25;exitDx=0;exitDy=0;" edge="1" parent="1" source="J4r66mqfOuGrFgJUOyye-4" target="J4r66mqfOuGrFgJUOyye-5">
          <mxGeometry width="50" height="50" relative="1" as="geometry">
            <mxPoint x="270" y="410" as="sourcePoint" />
            <mxPoint x="320" y="360" as="targetPoint" />
          </mxGeometry>
        </mxCell>
        <mxCell id="J4r66mqfOuGrFgJUOyye-35" value="" style="endArrow=classic;startArrow=classic;html=1;" edge="1" parent="1" target="J4r66mqfOuGrFgJUOyye-6">
          <mxGeometry width="50" height="50" relative="1" as="geometry">
            <mxPoint x="210" y="300" as="sourcePoint" />
            <mxPoint x="260" y="250" as="targetPoint" />
          </mxGeometry>
        </mxCell>
        <mxCell id="J4r66mqfOuGrFgJUOyye-36" value="" style="endArrow=classic;startArrow=classic;html=1;entryX=-0.013;entryY=0.588;entryDx=0;entryDy=0;entryPerimeter=0;" edge="1" parent="1" target="J4r66mqfOuGrFgJUOyye-7">
          <mxGeometry width="50" height="50" relative="1" as="geometry">
            <mxPoint x="290" y="340" as="sourcePoint" />
            <mxPoint x="340" y="290" as="targetPoint" />
          </mxGeometry>
        </mxCell>
        <mxCell id="J4r66mqfOuGrFgJUOyye-38" value="" style="endArrow=classic;startArrow=classic;html=1;" edge="1" parent="1">
          <mxGeometry width="50" height="50" relative="1" as="geometry">
            <mxPoint x="520" y="240" as="sourcePoint" />
            <mxPoint x="570" y="190" as="targetPoint" />
          </mxGeometry>
        </mxCell>
      </root>
    </mxGraphModel>
  </diagram>
</mxfile>
